<?xml version="1.0" standalone="no"?>
<!DOCTYPE svg PUBLIC "-//W3C//DTD SVG 20010904//EN"
 "http://www.w3.org/TR/2001/REC-SVG-20010904/DTD/svg10.dtd">
<svg version="1.0" xmlns="http://www.w3.org/2000/svg"
 width="560.000000pt" height="446.000000pt" viewBox="0 0 560.000000 446.000000"
 preserveAspectRatio="xMidYMid meet">

<g transform="translate(0.000000,446.000000) scale(0.100000,-0.100000)"
fill="#000000" stroke="none">
<path d="M3586 3649 c-367 -30 -694 -195 -957 -484 -201 -221 -314 -508 -326
-831 -17 -423 122 -784 410 -1067 140 -137 337 -258 526 -322 l66 -22 3 -109
c2 -71 7 -111 15 -116 7 -4 175 -8 375 -8 l362 0 0 114 0 114 68 23 c381 126
653 372 821 743 94 208 141 465 126 696 -25 393 -207 736 -530 997 -179 145
-460 252 -700 268 -49 3 -106 7 -125 9 -19 2 -79 -1 -134 -5z m205 -779 c96
-18 211 -84 294 -168 121 -121 173 -238 182 -407 9 -181 -46 -342 -165 -474
l-57 -65 -5 150 -5 149 -345 0 -345 0 -5 -150 -5 -150 -62 64 c-72 74 -138
195 -155 286 -15 79 -14 246 1 315 35 157 178 330 337 406 106 52 217 66 335
44z"/>
<path d="M917 3037 c-145 -79 -165 -94 -183 -136 -13 -32 -15 -168 -12 -1107
3 -964 5 -1073 19 -1095 17 -25 507 -291 570 -309 19 -6 64 -10 101 -10 80 0
84 5 87 99 1 43 -3 67 -11 73 -10 6 -10 10 2 18 13 9 13 11 0 20 -13 9 -13 11
0 20 13 9 13 10 0 10 -13 0 -13 1 0 10 11 7 14 25 11 77 -1 37 -8 71 -14 75
-7 4 -7 15 1 35 9 23 10 186 2 203 -2 3 -6 -13 -10 -35 -7 -34 -7 -33 -3 10 3
28 6 65 6 83 1 17 6 32 11 32 6 0 1 7 -10 15 -16 12 -17 14 -2 15 14 0 15 5 8
29 -5 18 -4 33 2 39 6 6 7 15 3 21 -3 6 -7 40 -9 76 -1 48 1 65 11 65 7 0 13
5 13 10 0 6 -7 10 -15 10 -21 0 -19 18 3 23 15 4 15 5 -2 6 -15 1 -16 4 -7 15
10 12 9 20 -5 41 -14 21 -14 24 -1 20 12 -5 14 10 12 113 -1 65 -5 124 -9 130
-3 6 -3 13 1 15 9 6 7 78 -3 120 -4 17 -2 27 5 27 6 0 11 9 11 20 0 13 -7 20
-20 20 -11 0 -20 5 -20 10 0 6 7 10 15 10 14 0 16 18 14 124 0 69 2 129 6 135
3 6 -1 11 -9 11 -9 0 -16 5 -16 10 0 6 5 10 11 10 8 0 8 4 0 14 -10 11 -8 17
6 25 10 6 13 11 6 11 -8 0 -10 12 -6 35 4 28 2 35 -11 35 -22 0 -21 41 3 72
12 15 16 29 11 37 -4 7 -5 22 -3 32 3 10 0 19 -6 19 -7 0 -9 -11 -6 -29 3 -18
0 -33 -10 -41 -12 -10 -13 -8 -10 11 3 13 -1 27 -8 32 -8 6 -6 7 6 3 10 -3 16
-2 13 3 -3 4 -40 11 -82 14 -66 5 -89 12 -179 58 -57 30 -101 57 -98 61 2 5 1
8 -4 7 -20 -3 -34 2 -28 11 3 5 0 8 -7 5 -7 -3 -31 6 -53 20 -22 13 -57 31
-77 40 -38 17 -55 40 -37 50 5 4 9 3 8 -2 -3 -19 3 -22 27 -12 24 8 25 8 14
-6 -7 -8 -10 -18 -6 -22 3 -3 6 -1 6 5 0 7 17 12 43 12 27 0 37 -3 29 -9 -11
-7 -10 -10 3 -15 24 -9 37 -7 30 4 -3 6 -2 10 4 10 5 0 12 -6 14 -12 4 -10 8
-9 16 2 9 12 11 13 11 1 0 -8 3 -11 6 -8 4 3 16 0 28 -8 11 -8 25 -15 31 -15
5 0 4 4 -2 8 -17 11 102 55 145 54 18 0 30 3 28 7 -6 10 25 8 42 -3 7 -4 12
-4 11 1 -4 23 3 33 24 33 12 0 28 9 35 20 7 12 17 18 22 15 6 -3 10 0 10 8 0
18 36 51 48 43 5 -3 9 1 9 8 0 20 -35 7 -58 -23 -18 -22 -21 -23 -15 -5 6 20
3 21 -71 23 -86 2 -89 3 -303 118 l-115 61 -58 -31z m550 -1289 c-3 -8 -6 -5
-6 6 -1 11 2 17 5 13 3 -3 4 -12 1 -19z m7 -175 c-10 -40 -14 -41 -14 -5 0 18
5 32 10 32 6 0 8 -11 4 -27z m-7 -265 c-3 -7 -5 -2 -5 12 0 14 2 19 5 13 2 -7
2 -19 0 -25z m8 -138 c3 -5 1 -10 -4 -10 -6 0 -11 5 -11 10 0 6 2 10 4 10 3 0
8 -4 11 -10z m8 -730 c3 -11 2 -22 -3 -25 -4 -3 -10 6 -12 20 -6 30 7 34 15 5z"/>
<path d="M1285 2750 c3 -5 8 -10 11 -10 2 0 4 5 4 10 0 6 -5 10 -11 10 -5 0
-7 -4 -4 -10z"/>
<path d="M1208 2723 c7 -3 16 -2 19 1 4 3 -2 6 -13 5 -11 0 -14 -3 -6 -6z"/>
<path d="M1470 2400 c0 -11 5 -20 10 -20 6 0 10 9 10 20 0 11 -4 20 -10 20 -5
0 -10 -9 -10 -20z"/>
</g>
</svg>
